<?xml version="1.0" encoding="UTF-8" standalone="no"?>
<!DOCTYPE svg PUBLIC "-//W3C//DTD SVG 1.1//EN"
 "http://www.w3.org/Graphics/SVG/1.1/DTD/svg11.dtd">
<!-- Generated by graphviz version 2.39.20160927.1334 (20160927.1334)
 -->
<!-- Title: snakemake_dag Pages: 1 -->
<svg width="129pt" height="476pt"
 viewBox="0.00 0.00 128.50 476.00" xmlns="http://www.w3.org/2000/svg" xmlns:xlink="http://www.w3.org/1999/xlink">
<g id="graph0" class="graph" transform="scale(1 1) rotate(0) translate(4 472)">
<title>snakemake_dag</title>
<polygon fill="#ffffff" stroke="transparent" points="-4,4 -4,-472 124.5,-472 124.5,4 -4,4"/>
<!-- 0 -->
<g id="node1" class="node">
<title>0</title>
<path fill="none" stroke="#d85656" stroke-width="2" d="M86.5,-36C86.5,-36 56.5,-36 56.5,-36 50.5,-36 44.5,-30 44.5,-24 44.5,-24 44.5,-12 44.5,-12 44.5,-6 50.5,-0 56.5,-0 56.5,-0 86.5,-0 86.5,-0 92.5,-0 98.5,-6 98.5,-12 98.5,-12 98.5,-24 98.5,-24 98.5,-30 92.5,-36 86.5,-36"/>
<text text-anchor="middle" x="71.5" y="-15.5" font-family="sans" font-size="10.00" fill="#000000">TSD</text>
</g>
<!-- 1 -->
<g id="node2" class="node">
<title>1</title>
<path fill="none" stroke="#97d856" stroke-width="2" stroke-dasharray="5,2" d="M95,-108C95,-108 48,-108 48,-108 42,-108 36,-102 36,-96 36,-96 36,-84 36,-84 36,-78 42,-72 48,-72 48,-72 95,-72 95,-72 101,-72 107,-78 107,-84 107,-84 107,-96 107,-96 107,-102 101,-108 95,-108"/>
<text text-anchor="middle" x="71.5" y="-87.5" font-family="sans" font-size="10.00" fill="#000000">get_TE_seq</text>
</g>
<!-- 1&#45;&gt;0 -->
<g id="edge1" class="edge">
<title>1&#45;&gt;0</title>
<path fill="none" stroke="#c0c0c0" stroke-width="2" d="M71.5,-71.8314C71.5,-64.131 71.5,-54.9743 71.5,-46.4166"/>
<polygon fill="#c0c0c0" stroke="#c0c0c0" stroke-width="2" points="75.0001,-46.4132 71.5,-36.4133 68.0001,-46.4133 75.0001,-46.4132"/>
</g>
<!-- 2 -->
<g id="node3" class="node">
<title>2</title>
<path fill="none" stroke="#d6d856" stroke-width="2" stroke-dasharray="5,2" d="M65,-180C65,-180 12,-180 12,-180 6,-180 0,-174 0,-168 0,-168 0,-156 0,-156 0,-150 6,-144 12,-144 12,-144 65,-144 65,-144 71,-144 77,-150 77,-156 77,-156 77,-168 77,-168 77,-174 71,-180 65,-180"/>
<text text-anchor="middle" x="38.5" y="-159.5" font-family="sans" font-size="10.00" fill="#000000">extract_read</text>
</g>
<!-- 2&#45;&gt;1 -->
<g id="edge2" class="edge">
<title>2&#45;&gt;1</title>
<path fill="none" stroke="#c0c0c0" stroke-width="2" d="M46.8273,-143.831C50.473,-135.877 54.8309,-126.369 58.8627,-117.572"/>
<polygon fill="#c0c0c0" stroke="#c0c0c0" stroke-width="2" points="62.0757,-118.962 63.0606,-108.413 55.7123,-116.046 62.0757,-118.962"/>
</g>
<!-- 3 -->
<g id="node4" class="node">
<title>3</title>
<path fill="none" stroke="#56d8d8" stroke-width="2" stroke-dasharray="5,2" d="M108.5,-252C108.5,-252 78.5,-252 78.5,-252 72.5,-252 66.5,-246 66.5,-240 66.5,-240 66.5,-228 66.5,-228 66.5,-222 72.5,-216 78.5,-216 78.5,-216 108.5,-216 108.5,-216 114.5,-216 120.5,-222 120.5,-228 120.5,-228 120.5,-240 120.5,-240 120.5,-246 114.5,-252 108.5,-252"/>
<text text-anchor="middle" x="93.5" y="-231.5" font-family="sans" font-size="10.00" fill="#000000">blast</text>
</g>
<!-- 3&#45;&gt;1 -->
<g id="edge3" class="edge">
<title>3&#45;&gt;1</title>
<path fill="none" stroke="#c0c0c0" stroke-width="2" d="M92.7723,-215.957C91.8313,-197.705 89.7751,-168.732 85.5,-144 84.0385,-135.545 81.9119,-126.475 79.7555,-118.228"/>
<polygon fill="#c0c0c0" stroke="#c0c0c0" stroke-width="2" points="83.064,-117.057 77.056,-108.33 76.3107,-118.899 83.064,-117.057"/>
</g>
<!-- 3&#45;&gt;2 -->
<g id="edge5" class="edge">
<title>3&#45;&gt;2</title>
<path fill="none" stroke="#c0c0c0" stroke-width="2" d="M79.6212,-215.831C73.2864,-207.539 65.6616,-197.557 58.7074,-188.453"/>
<polygon fill="#c0c0c0" stroke="#c0c0c0" stroke-width="2" points="61.4175,-186.235 52.5657,-180.413 55.8548,-190.485 61.4175,-186.235"/>
</g>
<!-- 4 -->
<g id="node5" class="node">
<title>4</title>
<path fill="none" stroke="#d89556" stroke-width="2" stroke-dasharray="5,2" d="M80.5,-324C80.5,-324 50.5,-324 50.5,-324 44.5,-324 38.5,-318 38.5,-312 38.5,-312 38.5,-300 38.5,-300 38.5,-294 44.5,-288 50.5,-288 50.5,-288 80.5,-288 80.5,-288 86.5,-288 92.5,-294 92.5,-300 92.5,-300 92.5,-312 92.5,-312 92.5,-318 86.5,-324 80.5,-324"/>
<text text-anchor="middle" x="65.5" y="-303.5" font-family="sans" font-size="10.00" fill="#000000">sniffles</text>
</g>
<!-- 4&#45;&gt;2 -->
<g id="edge4" class="edge">
<title>4&#45;&gt;2</title>
<path fill="none" stroke="#c0c0c0" stroke-width="2" d="M62.0804,-287.762C57.4549,-263.093 49.1612,-218.86 43.745,-189.973"/>
<polygon fill="#c0c0c0" stroke="#c0c0c0" stroke-width="2" points="47.1748,-189.273 41.8918,-180.09 40.2947,-190.563 47.1748,-189.273"/>
</g>
<!-- 4&#45;&gt;3 -->
<g id="edge6" class="edge">
<title>4&#45;&gt;3</title>
<path fill="none" stroke="#c0c0c0" stroke-width="2" d="M72.5656,-287.831C75.626,-279.962 79.2779,-270.571 82.6682,-261.853"/>
<polygon fill="#c0c0c0" stroke="#c0c0c0" stroke-width="2" points="85.9768,-263.002 86.3393,-252.413 79.4527,-260.465 85.9768,-263.002"/>
</g>
<!-- 5 -->
<g id="node6" class="node">
<title>5</title>
<path fill="none" stroke="#56d89a" stroke-width="2" stroke-dasharray="5,2" d="M84,-396C84,-396 47,-396 47,-396 41,-396 35,-390 35,-384 35,-384 35,-372 35,-372 35,-366 41,-360 47,-360 47,-360 84,-360 84,-360 90,-360 96,-366 96,-372 96,-372 96,-384 96,-384 96,-390 90,-396 84,-396"/>
<text text-anchor="middle" x="65.5" y="-375.5" font-family="sans" font-size="10.00" fill="#000000">samtools</text>
</g>
<!-- 5&#45;&gt;4 -->
<g id="edge7" class="edge">
<title>5&#45;&gt;4</title>
<path fill="none" stroke="#c0c0c0" stroke-width="2" d="M65.5,-359.831C65.5,-352.131 65.5,-342.974 65.5,-334.417"/>
<polygon fill="#c0c0c0" stroke="#c0c0c0" stroke-width="2" points="69.0001,-334.413 65.5,-324.413 62.0001,-334.413 69.0001,-334.413"/>
</g>
<!-- 6 -->
<g id="node7" class="node">
<title>6</title>
<path fill="none" stroke="#569ad8" stroke-width="2" stroke-dasharray="5,2" d="M83,-468C83,-468 48,-468 48,-468 42,-468 36,-462 36,-456 36,-456 36,-444 36,-444 36,-438 42,-432 48,-432 48,-432 83,-432 83,-432 89,-432 95,-438 95,-444 95,-444 95,-456 95,-456 95,-462 89,-468 83,-468"/>
<text text-anchor="middle" x="65.5" y="-447.5" font-family="sans" font-size="10.00" fill="#000000">mapping</text>
</g>
<!-- 6&#45;&gt;5 -->
<g id="edge8" class="edge">
<title>6&#45;&gt;5</title>
<path fill="none" stroke="#c0c0c0" stroke-width="2" d="M65.5,-431.831C65.5,-424.131 65.5,-414.974 65.5,-406.417"/>
<polygon fill="#c0c0c0" stroke="#c0c0c0" stroke-width="2" points="69.0001,-406.413 65.5,-396.413 62.0001,-406.413 69.0001,-406.413"/>
</g>
</g>
</svg>
