<?xml version="1.0" encoding="UTF-8" standalone="no"?>
<!DOCTYPE svg PUBLIC "-//W3C//DTD SVG 1.1//EN"
 "http://www.w3.org/Graphics/SVG/1.1/DTD/svg11.dtd">
<!-- Generated by graphviz version 2.39.20160927.1334 (20160927.1334)
 -->
<!-- Title: snakemake_dag Pages: 1 -->
<svg width="129pt" height="404pt"
 viewBox="0.00 0.00 128.50 404.00" xmlns="http://www.w3.org/2000/svg" xmlns:xlink="http://www.w3.org/1999/xlink">
<g id="graph0" class="graph" transform="scale(1 1) rotate(0) translate(4 400)">
<title>snakemake_dag</title>
<polygon fill="#ffffff" stroke="transparent" points="-4,4 -4,-400 124.5,-400 124.5,4 -4,4"/>
<!-- 0 -->
<g id="node1" class="node">
<title>0</title>
<path fill="none" stroke="#d8ac56" stroke-width="2" stroke-dasharray="5,2" d="M95,-36C95,-36 48,-36 48,-36 42,-36 36,-30 36,-24 36,-24 36,-12 36,-12 36,-6 42,-0 48,-0 48,-0 95,-0 95,-0 101,-0 107,-6 107,-12 107,-12 107,-24 107,-24 107,-30 101,-36 95,-36"/>
<text text-anchor="middle" x="71.5" y="-15.5" font-family="sans" font-size="10.00" fill="#000000">get_TE_seq</text>
</g>
<!-- 1 -->
<g id="node2" class="node">
<title>1</title>
<path fill="none" stroke="#59d856" stroke-width="2" stroke-dasharray="5,2" d="M65,-108C65,-108 12,-108 12,-108 6,-108 0,-102 0,-96 0,-96 0,-84 0,-84 0,-78 6,-72 12,-72 12,-72 65,-72 65,-72 71,-72 77,-78 77,-84 77,-84 77,-96 77,-96 77,-102 71,-108 65,-108"/>
<text text-anchor="middle" x="38.5" y="-87.5" font-family="sans" font-size="10.00" fill="#000000">extract_read</text>
</g>
<!-- 1&#45;&gt;0 -->
<g id="edge1" class="edge">
<title>1&#45;&gt;0</title>
<path fill="none" stroke="#c0c0c0" stroke-width="2" d="M46.8273,-71.8314C50.473,-63.8771 54.8309,-54.369 58.8627,-45.5723"/>
<polygon fill="#c0c0c0" stroke="#c0c0c0" stroke-width="2" points="62.0757,-46.9622 63.0606,-36.4133 55.7123,-44.0456 62.0757,-46.9622"/>
</g>
<!-- 2 -->
<g id="node3" class="node">
<title>2</title>
<path fill="none" stroke="#56d8a9" stroke-width="2" stroke-dasharray="5,2" d="M108.5,-180C108.5,-180 78.5,-180 78.5,-180 72.5,-180 66.5,-174 66.5,-168 66.5,-168 66.5,-156 66.5,-156 66.5,-150 72.5,-144 78.5,-144 78.5,-144 108.5,-144 108.5,-144 114.5,-144 120.5,-150 120.5,-156 120.5,-156 120.5,-168 120.5,-168 120.5,-174 114.5,-180 108.5,-180"/>
<text text-anchor="middle" x="93.5" y="-159.5" font-family="sans" font-size="10.00" fill="#000000">blast</text>
</g>
<!-- 2&#45;&gt;0 -->
<g id="edge2" class="edge">
<title>2&#45;&gt;0</title>
<path fill="none" stroke="#c0c0c0" stroke-width="2" d="M92.7723,-143.957C91.8313,-125.705 89.7751,-96.7318 85.5,-72 84.0385,-63.5451 81.9119,-54.4749 79.7555,-46.2279"/>
<polygon fill="#c0c0c0" stroke="#c0c0c0" stroke-width="2" points="83.064,-45.0568 77.056,-36.3302 76.3107,-46.8988 83.064,-45.0568"/>
</g>
<!-- 2&#45;&gt;1 -->
<g id="edge4" class="edge">
<title>2&#45;&gt;1</title>
<path fill="none" stroke="#c0c0c0" stroke-width="2" d="M79.6212,-143.831C73.2864,-135.539 65.6616,-125.557 58.7074,-116.453"/>
<polygon fill="#c0c0c0" stroke="#c0c0c0" stroke-width="2" points="61.4175,-114.235 52.5657,-108.413 55.8548,-118.485 61.4175,-114.235"/>
</g>
<!-- 3 -->
<g id="node4" class="node">
<title>3</title>
<path fill="none" stroke="#56a9d8" stroke-width="2" stroke-dasharray="5,2" d="M80.5,-252C80.5,-252 50.5,-252 50.5,-252 44.5,-252 38.5,-246 38.5,-240 38.5,-240 38.5,-228 38.5,-228 38.5,-222 44.5,-216 50.5,-216 50.5,-216 80.5,-216 80.5,-216 86.5,-216 92.5,-222 92.5,-228 92.5,-228 92.5,-240 92.5,-240 92.5,-246 86.5,-252 80.5,-252"/>
<text text-anchor="middle" x="65.5" y="-231.5" font-family="sans" font-size="10.00" fill="#000000">sniffles</text>
</g>
<!-- 3&#45;&gt;1 -->
<g id="edge3" class="edge">
<title>3&#45;&gt;1</title>
<path fill="none" stroke="#c0c0c0" stroke-width="2" d="M62.0804,-215.762C57.4549,-191.093 49.1612,-146.86 43.745,-117.973"/>
<polygon fill="#c0c0c0" stroke="#c0c0c0" stroke-width="2" points="47.1748,-117.273 41.8918,-108.09 40.2947,-118.563 47.1748,-117.273"/>
</g>
<!-- 3&#45;&gt;2 -->
<g id="edge5" class="edge">
<title>3&#45;&gt;2</title>
<path fill="none" stroke="#c0c0c0" stroke-width="2" d="M72.5656,-215.831C75.626,-207.962 79.2779,-198.571 82.6682,-189.853"/>
<polygon fill="#c0c0c0" stroke="#c0c0c0" stroke-width="2" points="85.9768,-191.002 86.3393,-180.413 79.4527,-188.465 85.9768,-191.002"/>
</g>
<!-- 4 -->
<g id="node5" class="node">
<title>4</title>
<path fill="none" stroke="#d85656" stroke-width="2" stroke-dasharray="5,2" d="M84,-324C84,-324 47,-324 47,-324 41,-324 35,-318 35,-312 35,-312 35,-300 35,-300 35,-294 41,-288 47,-288 47,-288 84,-288 84,-288 90,-288 96,-294 96,-300 96,-300 96,-312 96,-312 96,-318 90,-324 84,-324"/>
<text text-anchor="middle" x="65.5" y="-303.5" font-family="sans" font-size="10.00" fill="#000000">samtools</text>
</g>
<!-- 4&#45;&gt;3 -->
<g id="edge6" class="edge">
<title>4&#45;&gt;3</title>
<path fill="none" stroke="#c0c0c0" stroke-width="2" d="M65.5,-287.831C65.5,-280.131 65.5,-270.974 65.5,-262.417"/>
<polygon fill="#c0c0c0" stroke="#c0c0c0" stroke-width="2" points="69.0001,-262.413 65.5,-252.413 62.0001,-262.413 69.0001,-262.413"/>
</g>
<!-- 5 -->
<g id="node6" class="node">
<title>5</title>
<path fill="none" stroke="#afd856" stroke-width="2" stroke-dasharray="5,2" d="M83,-396C83,-396 48,-396 48,-396 42,-396 36,-390 36,-384 36,-384 36,-372 36,-372 36,-366 42,-360 48,-360 48,-360 83,-360 83,-360 89,-360 95,-366 95,-372 95,-372 95,-384 95,-384 95,-390 89,-396 83,-396"/>
<text text-anchor="middle" x="65.5" y="-375.5" font-family="sans" font-size="10.00" fill="#000000">mapping</text>
</g>
<!-- 5&#45;&gt;4 -->
<g id="edge7" class="edge">
<title>5&#45;&gt;4</title>
<path fill="none" stroke="#c0c0c0" stroke-width="2" d="M65.5,-359.831C65.5,-352.131 65.5,-342.974 65.5,-334.417"/>
<polygon fill="#c0c0c0" stroke="#c0c0c0" stroke-width="2" points="69.0001,-334.413 65.5,-324.413 62.0001,-334.413 69.0001,-334.413"/>
</g>
</g>
</svg>
